<svg width="45" height="40" viewBox="0 0 45 40" fill="none" xmlns="http://www.w3.org/2000/svg">
<g filter="url(#filter0_i_1_440)">
<path d="M23.378 12.5606L33.2127 12.5606V13.4147L23.378 13.4147V19.1984L38.8743 19.1984V5.99599H39.582V16.1235H44.9996V0.334351L29.5033 0.334351V5.99599L33.2127 5.99599V6.89893L28.698 6.89893V0.334351L23.378 0.334351L23.378 12.5606Z" fill="url(#paint0_linear_1_440)"/>
<path d="M23.3779 26.2998H33.2126V27.1539H23.3779L23.3779 39.3802H28.6979V32.8156H33.2126V33.7185H29.5032V39.3802H44.9995V23.591H39.5819V33.7185H38.8742L38.8742 20.5161L23.3779 20.5161V26.2998Z" fill="url(#paint1_linear_1_440)"/>
<path d="M22.231 27.1783H12.3963V26.3242H22.231L22.231 20.5405L6.73469 20.5405L6.73469 33.7429H6.02698L6.02698 23.6154H0.609375L0.609376 39.4045L16.1057 39.4045V33.7429L12.3963 33.7429V32.84H16.911L16.911 39.4045H22.231L22.231 27.1783Z" fill="url(#paint2_linear_1_440)"/>
<path d="M22.231 13.4391L12.3964 13.4391V12.5849L22.231 12.5849L22.231 0.358729L16.911 0.358729V6.92331L12.3964 6.92331V6.02037L16.1057 6.02037L16.1057 0.35873L0.609398 0.358731L0.6094 16.1479H6.02701L6.02701 6.02037H6.73471L6.73471 19.2227L22.231 19.2227V13.4391Z" fill="url(#paint3_linear_1_440)"/>
</g>
<path d="M22.1377 20.6342V26.2308H12.3027L12.3027 27.2719H22.1377L22.1377 39.3109H17.0049V32.7465H12.3027V33.8363H16.0117V39.3109H0.703125L0.703125 23.7094H5.93359L5.93359 33.8363H6.82813L6.82813 20.6342L22.1377 20.6342ZM38.7803 20.6097L38.7803 33.8119H39.6758V23.6849H44.9063V39.2865H29.5967V33.8119H33.3066V32.722H28.6045V39.2865H23.4717L23.4717 27.2474H33.3066V26.2064H23.4717V20.6097L38.7803 20.6097ZM16.0117 0.452515V5.92712L12.3027 5.92712V7.01697L17.0049 7.01697V0.452515L22.1377 0.452515L22.1377 12.4916L12.3027 12.4916V13.5326L22.1377 13.5326V19.1293L6.82813 19.1293L6.82813 5.92712H5.93359L5.93359 16.0541H0.703125L0.703125 0.452515L16.0117 0.452515ZM28.6045 0.428101V6.99255L33.3066 6.99255V5.90271L29.5967 5.90271V0.428101L44.9062 0.428101V16.0297H39.6758V5.90271H38.7803V19.1049L23.4717 19.1049V13.5082L33.3066 13.5082V12.4672L23.4717 12.4672L23.4717 0.428101L28.6045 0.428101Z" stroke="url(#paint4_linear_1_440)" stroke-width="0.187147"/>
<defs>
<filter id="filter0_i_1_440" x="0.609375" y="0.334351" width="44.3904" height="51.9818" filterUnits="userSpaceOnUse" color-interpolation-filters="sRGB">
<feFlood flood-opacity="0" result="BackgroundImageFix"/>
<feBlend mode="normal" in="SourceGraphic" in2="BackgroundImageFix" result="shape"/>
<feColorMatrix in="SourceAlpha" type="matrix" values="0 0 0 0 0 0 0 0 0 0 0 0 0 0 0 0 0 0 127 0" result="hardAlpha"/>
<feOffset dy="12.9117"/>
<feGaussianBlur stdDeviation="9.68374"/>
<feComposite in2="hardAlpha" operator="arithmetic" k2="-1" k3="1"/>
<feColorMatrix type="matrix" values="0 0 0 0 1 0 0 0 0 1 0 0 0 0 1 0 0 0 0.6 0"/>
<feBlend mode="normal" in2="shape" result="effect1_innerShadow_1_440"/>
</filter>
<linearGradient id="paint0_linear_1_440" x1="40.5534" y1="39.4045" x2="5.05282" y2="0.336928" gradientUnits="userSpaceOnUse">
<stop stop-color="#A8A8A6"/>
<stop offset="0.45" stop-color="#999999"/>
<stop offset="0.67" stop-color="#F9F8F6"/>
<stop offset="0.82" stop-color="#D4D4D4"/>
<stop offset="1" stop-color="#7F7F7F"/>
</linearGradient>
<linearGradient id="paint1_linear_1_440" x1="40.5534" y1="39.4045" x2="5.05282" y2="0.336928" gradientUnits="userSpaceOnUse">
<stop stop-color="#A8A8A6"/>
<stop offset="0.45" stop-color="#999999"/>
<stop offset="0.67" stop-color="#F9F8F6"/>
<stop offset="0.82" stop-color="#D4D4D4"/>
<stop offset="1" stop-color="#7F7F7F"/>
</linearGradient>
<linearGradient id="paint2_linear_1_440" x1="40.5534" y1="39.4045" x2="5.05282" y2="0.336928" gradientUnits="userSpaceOnUse">
<stop stop-color="#A8A8A6"/>
<stop offset="0.45" stop-color="#999999"/>
<stop offset="0.67" stop-color="#F9F8F6"/>
<stop offset="0.82" stop-color="#D4D4D4"/>
<stop offset="1" stop-color="#7F7F7F"/>
</linearGradient>
<linearGradient id="paint3_linear_1_440" x1="40.5534" y1="39.4045" x2="5.05282" y2="0.336928" gradientUnits="userSpaceOnUse">
<stop stop-color="#A8A8A6"/>
<stop offset="0.45" stop-color="#999999"/>
<stop offset="0.67" stop-color="#F9F8F6"/>
<stop offset="0.82" stop-color="#D4D4D4"/>
<stop offset="1" stop-color="#7F7F7F"/>
</linearGradient>
<linearGradient id="paint4_linear_1_440" x1="22.8045" y1="0.334351" x2="22.8045" y2="33.7068" gradientUnits="userSpaceOnUse">
<stop stop-color="white" stop-opacity="0.53"/>
<stop offset="1" stop-color="white" stop-opacity="0"/>
</linearGradient>
</defs>
</svg>
