<svg width="33" height="32" viewBox="0 0 33 32" fill="none" xmlns="http://www.w3.org/2000/svg">
<path d="M21 14H22V15.5H21V14Z" fill="#CECECE"/>
<path d="M23 13L26 13.5L31 23L28.5 24.5L25.5 15L23 13Z" fill="#CECECE"/>
<path d="M20.5 26L27.5 24L28.5 26L21 28L20.5 26Z" fill="#CECECE"/>
<path d="M19 4L22.5 6L10 13V18.5L6.5 17V11.5L19 4Z" fill="#CECECE"/>
<mask id="path-5-outside-1_1_3112" maskUnits="userSpaceOnUse" x="0.443359" y="0" width="32" height="32" fill="black">
<rect fill="white" x="0.443359" width="32" height="32"/>
<path d="M31.4247 22.4903L30.7921 21.3946C30.7918 21.3941 30.7917 21.3937 30.7915 21.3933C30.7912 21.3928 30.7908 21.3925 30.7906 21.3921L27.5225 15.7315L27.5224 8.68381C27.5224 8.67889 27.5207 8.67428 27.5205 8.66936C27.5196 8.64732 27.5167 8.62541 27.5117 8.60349C27.51 8.59564 27.5087 8.58792 27.5065 8.58026C27.4986 8.55342 27.4883 8.52703 27.4739 8.50175C27.4732 8.50051 27.4724 8.49938 27.4717 8.49814C27.4571 8.47336 27.4397 8.4515 27.4207 8.43152C27.415 8.42554 27.4087 8.42044 27.4027 8.41483C27.3863 8.39983 27.3691 8.3865 27.3507 8.37486C27.3464 8.37218 27.3432 8.36826 27.3388 8.36577L14.6665 1.04931C14.5527 0.983562 14.4129 0.983562 14.2991 1.04931L1.62692 8.36576C1.62275 8.36819 1.61969 8.37186 1.61562 8.37448C1.59678 8.38631 1.57922 8.39989 1.5626 8.4152C1.55678 8.42062 1.5507 8.42554 1.54523 8.43126C1.52618 8.45138 1.50862 8.47329 1.49405 8.49819C1.49333 8.49937 1.49255 8.5005 1.49187 8.50174C1.47742 8.52702 1.46715 8.55349 1.45924 8.58032C1.45703 8.58791 1.45578 8.59557 1.45404 8.60329C1.44909 8.62527 1.44613 8.64725 1.44529 8.66942C1.44507 8.67434 1.44336 8.67888 1.44336 8.6838V23.3164C1.44336 23.4477 1.51334 23.569 1.62691 23.6345L14.2991 30.9507C14.3033 30.9531 14.308 30.9539 14.3122 30.9561C14.3321 30.9666 14.3528 30.9752 14.3746 30.9819C14.382 30.9842 14.389 30.9869 14.3965 30.9887C14.4243 30.9955 14.4529 31 14.4828 31C14.5127 31 14.5413 30.9955 14.5691 30.9887C14.5766 30.9869 14.5836 30.9842 14.591 30.9819C14.6128 30.9752 14.6336 30.9666 14.6534 30.9561C14.6576 30.9539 14.6623 30.9531 14.6665 30.9507L20.511 27.5764C20.6457 28.0049 21.042 28.2871 21.4754 28.2871C21.5619 28.2871 21.65 28.2759 21.7374 28.2522L27.9787 26.58C28.5182 26.4354 28.8396 25.8787 28.6952 25.339L28.6654 25.2279L31.0621 23.8442C31.291 23.712 31.4548 23.4983 31.5233 23.2422C31.5919 22.9862 31.5569 22.719 31.4247 22.4903ZM9.42415 17.9902L6.996 16.588L6.93816 12.0683L9.36619 13.4701L9.42415 17.9902ZM21.6686 5.94016L9.73098 12.8325L7.29724 11.4274L19.2348 4.53506L21.6686 5.94016ZM22.4032 6.36424L26.4207 8.68374L20.6522 12.014C20.5333 12.0556 20.4229 12.1187 20.3256 12.2027L14.4828 15.5759L10.4655 13.2565L22.4032 6.36424ZM14.85 16.2121L19.4872 13.5349L17.6902 16.6475C17.6416 16.7317 17.6284 16.8321 17.6535 16.9262L20.3109 26.8438L14.85 29.9965V16.2121ZM18.4024 16.8829L20.7443 12.8263C20.8213 12.6933 20.9923 12.6475 21.1254 12.7242L25.1823 15.0665L27.5511 23.9074L20.7714 25.7241L18.4024 16.8829ZM25.8523 14.7293C25.8271 14.6354 25.7655 14.5552 25.6812 14.5064L23.5127 13.2543L25.5613 13.8033L29.9716 21.4424L27.962 22.6027L25.8523 14.7293ZM26.1213 13.3045C26.0726 13.2201 25.9924 13.1585 25.8983 13.1334L21.9947 12.0872L26.7879 9.31988L26.788 14.4592L26.1213 13.3045ZM14.4828 1.79149L18.5003 4.11093L6.56265 11.0032L2.54505 8.68374L14.4828 1.79149ZM2.17782 9.31989L6.19811 11.641L6.2643 16.8064C6.26592 16.9359 6.33578 17.055 6.44785 17.1197L9.61594 18.9491C9.67284 18.9819 9.73623 18.9984 9.79961 18.9984C9.86374 18.9984 9.928 18.9814 9.98528 18.9478C10.0992 18.8811 10.1685 18.7583 10.1668 18.6263L10.1063 13.8973L14.1156 16.2121V29.9965L2.17782 23.1045V9.31989ZM27.7885 25.8707L21.5472 27.5429C21.399 27.582 21.2455 27.4943 21.2059 27.3456L20.9615 26.4334L27.7412 24.6167L27.9856 25.529C28.0255 25.6777 27.9369 25.8309 27.7885 25.8707ZM30.8139 23.0522C30.7961 23.1187 30.7537 23.174 30.6947 23.2081L28.4686 24.4934L28.3559 24.0726C28.3558 24.0723 28.3558 24.0721 28.3557 24.0718C28.3557 24.0716 28.3555 24.0714 28.3555 24.0711L28.1588 23.3372L30.3389 22.0785L30.7887 22.8577C30.8227 22.9165 30.8317 22.9857 30.8139 23.0522ZM24.7082 21.009C24.8005 21.3537 24.7238 21.7307 24.4978 22.0438C24.3535 22.2434 24.1549 22.4039 23.9264 22.5205L24.0046 22.8129C24.0571 23.0086 23.9408 23.2101 23.7449 23.2624C23.713 23.2711 23.6811 23.2751 23.6496 23.2751C23.4875 23.2751 23.339 23.1668 23.2951 23.0026L23.2172 22.7119C23.1878 22.7134 23.1581 22.7177 23.1288 22.7177C22.9031 22.7177 22.6829 22.6726 22.4838 22.5832C22.1315 22.4253 21.8765 22.1372 21.7842 21.7927C21.7318 21.5967 21.8481 21.3953 22.044 21.343C22.2388 21.2892 22.4412 21.4067 22.4937 21.6025C22.5414 21.7808 22.6964 21.8737 22.7844 21.913C22.9596 21.9917 23.1813 22.0044 23.3928 21.9479C23.6042 21.8914 23.7898 21.7696 23.9023 21.6137C23.9588 21.5355 24.0465 21.3776 23.9986 21.199C23.9046 20.8481 23.7191 20.814 23.0318 20.8653C22.4479 20.9091 21.565 20.9741 21.3009 19.9891C21.1436 19.4016 21.4837 18.7817 22.082 18.4748L22.0045 18.1854C21.952 17.9897 22.0684 17.7882 22.2642 17.7359C22.4601 17.6826 22.6615 17.7997 22.714 17.9957L22.7921 18.2873C23.0485 18.274 23.3007 18.3139 23.5253 18.4148C23.8776 18.573 24.1326 18.8611 24.2249 19.2058C24.2773 19.4016 24.161 19.6031 23.9652 19.6554C23.7689 19.7094 23.5678 19.5916 23.5154 19.3956C23.4677 19.2173 23.3128 19.1244 23.2247 19.085C23.0493 19.0061 22.8277 18.9936 22.6163 19.0502C22.2085 19.1595 21.931 19.5024 22.0105 19.7988C22.1043 20.15 22.2899 20.1841 22.9774 20.1328C23.5614 20.0902 24.4442 20.024 24.7082 21.009ZM21.7973 15.9933C22.4058 15.8304 22.7685 15.2025 22.6055 14.5936C22.5264 14.299 22.3373 14.0524 22.073 13.8997C21.8085 13.7471 21.5007 13.7067 21.2058 13.7857C20.9109 13.8646 20.6645 14.0536 20.5118 14.3181C20.3591 14.5824 20.3185 14.8905 20.3975 15.1854C20.5342 15.6952 20.9972 16.0324 21.5018 16.0324C21.5994 16.0324 21.6986 16.0197 21.7973 15.9933ZM21.107 14.9951C21.0788 14.8897 21.0933 14.7799 21.1479 14.6853C21.2024 14.5909 21.2904 14.5234 21.3958 14.495C21.431 14.4858 21.4667 14.481 21.5021 14.481C21.5729 14.481 21.6427 14.4995 21.7056 14.5358C21.8001 14.5904 21.8677 14.6785 21.8959 14.7836C21.9542 15.0013 21.8247 15.2257 21.6072 15.284C21.3898 15.342 21.1653 15.2127 21.107 14.9951Z"/>
</mask>
<path d="M31.4247 22.4903L30.7921 21.3946C30.7918 21.3941 30.7917 21.3937 30.7915 21.3933C30.7912 21.3928 30.7908 21.3925 30.7906 21.3921L27.5225 15.7315L27.5224 8.68381C27.5224 8.67889 27.5207 8.67428 27.5205 8.66936C27.5196 8.64732 27.5167 8.62541 27.5117 8.60349C27.51 8.59564 27.5087 8.58792 27.5065 8.58026C27.4986 8.55342 27.4883 8.52703 27.4739 8.50175C27.4732 8.50051 27.4724 8.49938 27.4717 8.49814C27.4571 8.47336 27.4397 8.4515 27.4207 8.43152C27.415 8.42554 27.4087 8.42044 27.4027 8.41483C27.3863 8.39983 27.3691 8.3865 27.3507 8.37486C27.3464 8.37218 27.3432 8.36826 27.3388 8.36577L14.6665 1.04931C14.5527 0.983562 14.4129 0.983562 14.2991 1.04931L1.62692 8.36576C1.62275 8.36819 1.61969 8.37186 1.61562 8.37448C1.59678 8.38631 1.57922 8.39989 1.5626 8.4152C1.55678 8.42062 1.5507 8.42554 1.54523 8.43126C1.52618 8.45138 1.50862 8.47329 1.49405 8.49819C1.49333 8.49937 1.49255 8.5005 1.49187 8.50174C1.47742 8.52702 1.46715 8.55349 1.45924 8.58032C1.45703 8.58791 1.45578 8.59557 1.45404 8.60329C1.44909 8.62527 1.44613 8.64725 1.44529 8.66942C1.44507 8.67434 1.44336 8.67888 1.44336 8.6838V23.3164C1.44336 23.4477 1.51334 23.569 1.62691 23.6345L14.2991 30.9507C14.3033 30.9531 14.308 30.9539 14.3122 30.9561C14.3321 30.9666 14.3528 30.9752 14.3746 30.9819C14.382 30.9842 14.389 30.9869 14.3965 30.9887C14.4243 30.9955 14.4529 31 14.4828 31C14.5127 31 14.5413 30.9955 14.5691 30.9887C14.5766 30.9869 14.5836 30.9842 14.591 30.9819C14.6128 30.9752 14.6336 30.9666 14.6534 30.9561C14.6576 30.9539 14.6623 30.9531 14.6665 30.9507L20.511 27.5764C20.6457 28.0049 21.042 28.2871 21.4754 28.2871C21.5619 28.2871 21.65 28.2759 21.7374 28.2522L27.9787 26.58C28.5182 26.4354 28.8396 25.8787 28.6952 25.339L28.6654 25.2279L31.0621 23.8442C31.291 23.712 31.4548 23.4983 31.5233 23.2422C31.5919 22.9862 31.5569 22.719 31.4247 22.4903ZM9.42415 17.9902L6.996 16.588L6.93816 12.0683L9.36619 13.4701L9.42415 17.9902ZM21.6686 5.94016L9.73098 12.8325L7.29724 11.4274L19.2348 4.53506L21.6686 5.94016ZM22.4032 6.36424L26.4207 8.68374L20.6522 12.014C20.5333 12.0556 20.4229 12.1187 20.3256 12.2027L14.4828 15.5759L10.4655 13.2565L22.4032 6.36424ZM14.85 16.2121L19.4872 13.5349L17.6902 16.6475C17.6416 16.7317 17.6284 16.8321 17.6535 16.9262L20.3109 26.8438L14.85 29.9965V16.2121ZM18.4024 16.8829L20.7443 12.8263C20.8213 12.6933 20.9923 12.6475 21.1254 12.7242L25.1823 15.0665L27.5511 23.9074L20.7714 25.7241L18.4024 16.8829ZM25.8523 14.7293C25.8271 14.6354 25.7655 14.5552 25.6812 14.5064L23.5127 13.2543L25.5613 13.8033L29.9716 21.4424L27.962 22.6027L25.8523 14.7293ZM26.1213 13.3045C26.0726 13.2201 25.9924 13.1585 25.8983 13.1334L21.9947 12.0872L26.7879 9.31988L26.788 14.4592L26.1213 13.3045ZM14.4828 1.79149L18.5003 4.11093L6.56265 11.0032L2.54505 8.68374L14.4828 1.79149ZM2.17782 9.31989L6.19811 11.641L6.2643 16.8064C6.26592 16.9359 6.33578 17.055 6.44785 17.1197L9.61594 18.9491C9.67284 18.9819 9.73623 18.9984 9.79961 18.9984C9.86374 18.9984 9.928 18.9814 9.98528 18.9478C10.0992 18.8811 10.1685 18.7583 10.1668 18.6263L10.1063 13.8973L14.1156 16.2121V29.9965L2.17782 23.1045V9.31989ZM27.7885 25.8707L21.5472 27.5429C21.399 27.582 21.2455 27.4943 21.2059 27.3456L20.9615 26.4334L27.7412 24.6167L27.9856 25.529C28.0255 25.6777 27.9369 25.8309 27.7885 25.8707ZM30.8139 23.0522C30.7961 23.1187 30.7537 23.174 30.6947 23.2081L28.4686 24.4934L28.3559 24.0726C28.3558 24.0723 28.3558 24.0721 28.3557 24.0718C28.3557 24.0716 28.3555 24.0714 28.3555 24.0711L28.1588 23.3372L30.3389 22.0785L30.7887 22.8577C30.8227 22.9165 30.8317 22.9857 30.8139 23.0522ZM24.7082 21.009C24.8005 21.3537 24.7238 21.7307 24.4978 22.0438C24.3535 22.2434 24.1549 22.4039 23.9264 22.5205L24.0046 22.8129C24.0571 23.0086 23.9408 23.2101 23.7449 23.2624C23.713 23.2711 23.6811 23.2751 23.6496 23.2751C23.4875 23.2751 23.339 23.1668 23.2951 23.0026L23.2172 22.7119C23.1878 22.7134 23.1581 22.7177 23.1288 22.7177C22.9031 22.7177 22.6829 22.6726 22.4838 22.5832C22.1315 22.4253 21.8765 22.1372 21.7842 21.7927C21.7318 21.5967 21.8481 21.3953 22.044 21.343C22.2388 21.2892 22.4412 21.4067 22.4937 21.6025C22.5414 21.7808 22.6964 21.8737 22.7844 21.913C22.9596 21.9917 23.1813 22.0044 23.3928 21.9479C23.6042 21.8914 23.7898 21.7696 23.9023 21.6137C23.9588 21.5355 24.0465 21.3776 23.9986 21.199C23.9046 20.8481 23.7191 20.814 23.0318 20.8653C22.4479 20.9091 21.565 20.9741 21.3009 19.9891C21.1436 19.4016 21.4837 18.7817 22.082 18.4748L22.0045 18.1854C21.952 17.9897 22.0684 17.7882 22.2642 17.7359C22.4601 17.6826 22.6615 17.7997 22.714 17.9957L22.7921 18.2873C23.0485 18.274 23.3007 18.3139 23.5253 18.4148C23.8776 18.573 24.1326 18.8611 24.2249 19.2058C24.2773 19.4016 24.161 19.6031 23.9652 19.6554C23.7689 19.7094 23.5678 19.5916 23.5154 19.3956C23.4677 19.2173 23.3128 19.1244 23.2247 19.085C23.0493 19.0061 22.8277 18.9936 22.6163 19.0502C22.2085 19.1595 21.931 19.5024 22.0105 19.7988C22.1043 20.15 22.2899 20.1841 22.9774 20.1328C23.5614 20.0902 24.4442 20.024 24.7082 21.009ZM21.7973 15.9933C22.4058 15.8304 22.7685 15.2025 22.6055 14.5936C22.5264 14.299 22.3373 14.0524 22.073 13.8997C21.8085 13.7471 21.5007 13.7067 21.2058 13.7857C20.9109 13.8646 20.6645 14.0536 20.5118 14.3181C20.3591 14.5824 20.3185 14.8905 20.3975 15.1854C20.5342 15.6952 20.9972 16.0324 21.5018 16.0324C21.5994 16.0324 21.6986 16.0197 21.7973 15.9933ZM21.107 14.9951C21.0788 14.8897 21.0933 14.7799 21.1479 14.6853C21.2024 14.5909 21.2904 14.5234 21.3958 14.495C21.431 14.4858 21.4667 14.481 21.5021 14.481C21.5729 14.481 21.6427 14.4995 21.7056 14.5358C21.8001 14.5904 21.8677 14.6785 21.8959 14.7836C21.9542 15.0013 21.8247 15.2257 21.6072 15.284C21.3898 15.342 21.1653 15.2127 21.107 14.9951Z" fill="#3A3A3A"/>
<path d="M31.4247 22.4903L30.7921 21.3946C30.7918 21.3941 30.7917 21.3937 30.7915 21.3933C30.7912 21.3928 30.7908 21.3925 30.7906 21.3921L27.5225 15.7315L27.5224 8.68381C27.5224 8.67889 27.5207 8.67428 27.5205 8.66936C27.5196 8.64732 27.5167 8.62541 27.5117 8.60349C27.51 8.59564 27.5087 8.58792 27.5065 8.58026C27.4986 8.55342 27.4883 8.52703 27.4739 8.50175C27.4732 8.50051 27.4724 8.49938 27.4717 8.49814C27.4571 8.47336 27.4397 8.4515 27.4207 8.43152C27.415 8.42554 27.4087 8.42044 27.4027 8.41483C27.3863 8.39983 27.3691 8.3865 27.3507 8.37486C27.3464 8.37218 27.3432 8.36826 27.3388 8.36577L14.6665 1.04931C14.5527 0.983562 14.4129 0.983562 14.2991 1.04931L1.62692 8.36576C1.62275 8.36819 1.61969 8.37186 1.61562 8.37448C1.59678 8.38631 1.57922 8.39989 1.5626 8.4152C1.55678 8.42062 1.5507 8.42554 1.54523 8.43126C1.52618 8.45138 1.50862 8.47329 1.49405 8.49819C1.49333 8.49937 1.49255 8.5005 1.49187 8.50174C1.47742 8.52702 1.46715 8.55349 1.45924 8.58032C1.45703 8.58791 1.45578 8.59557 1.45404 8.60329C1.44909 8.62527 1.44613 8.64725 1.44529 8.66942C1.44507 8.67434 1.44336 8.67888 1.44336 8.6838V23.3164C1.44336 23.4477 1.51334 23.569 1.62691 23.6345L14.2991 30.9507C14.3033 30.9531 14.308 30.9539 14.3122 30.9561C14.3321 30.9666 14.3528 30.9752 14.3746 30.9819C14.382 30.9842 14.389 30.9869 14.3965 30.9887C14.4243 30.9955 14.4529 31 14.4828 31C14.5127 31 14.5413 30.9955 14.5691 30.9887C14.5766 30.9869 14.5836 30.9842 14.591 30.9819C14.6128 30.9752 14.6336 30.9666 14.6534 30.9561C14.6576 30.9539 14.6623 30.9531 14.6665 30.9507L20.511 27.5764C20.6457 28.0049 21.042 28.2871 21.4754 28.2871C21.5619 28.2871 21.65 28.2759 21.7374 28.2522L27.9787 26.58C28.5182 26.4354 28.8396 25.8787 28.6952 25.339L28.6654 25.2279L31.0621 23.8442C31.291 23.712 31.4548 23.4983 31.5233 23.2422C31.5919 22.9862 31.5569 22.719 31.4247 22.4903ZM9.42415 17.9902L6.996 16.588L6.93816 12.0683L9.36619 13.4701L9.42415 17.9902ZM21.6686 5.94016L9.73098 12.8325L7.29724 11.4274L19.2348 4.53506L21.6686 5.94016ZM22.4032 6.36424L26.4207 8.68374L20.6522 12.014C20.5333 12.0556 20.4229 12.1187 20.3256 12.2027L14.4828 15.5759L10.4655 13.2565L22.4032 6.36424ZM14.85 16.2121L19.4872 13.5349L17.6902 16.6475C17.6416 16.7317 17.6284 16.8321 17.6535 16.9262L20.3109 26.8438L14.85 29.9965V16.2121ZM18.4024 16.8829L20.7443 12.8263C20.8213 12.6933 20.9923 12.6475 21.1254 12.7242L25.1823 15.0665L27.5511 23.9074L20.7714 25.7241L18.4024 16.8829ZM25.8523 14.7293C25.8271 14.6354 25.7655 14.5552 25.6812 14.5064L23.5127 13.2543L25.5613 13.8033L29.9716 21.4424L27.962 22.6027L25.8523 14.7293ZM26.1213 13.3045C26.0726 13.2201 25.9924 13.1585 25.8983 13.1334L21.9947 12.0872L26.7879 9.31988L26.788 14.4592L26.1213 13.3045ZM14.4828 1.79149L18.5003 4.11093L6.56265 11.0032L2.54505 8.68374L14.4828 1.79149ZM2.17782 9.31989L6.19811 11.641L6.2643 16.8064C6.26592 16.9359 6.33578 17.055 6.44785 17.1197L9.61594 18.9491C9.67284 18.9819 9.73623 18.9984 9.79961 18.9984C9.86374 18.9984 9.928 18.9814 9.98528 18.9478C10.0992 18.8811 10.1685 18.7583 10.1668 18.6263L10.1063 13.8973L14.1156 16.2121V29.9965L2.17782 23.1045V9.31989ZM27.7885 25.8707L21.5472 27.5429C21.399 27.582 21.2455 27.4943 21.2059 27.3456L20.9615 26.4334L27.7412 24.6167L27.9856 25.529C28.0255 25.6777 27.9369 25.8309 27.7885 25.8707ZM30.8139 23.0522C30.7961 23.1187 30.7537 23.174 30.6947 23.2081L28.4686 24.4934L28.3559 24.0726C28.3558 24.0723 28.3558 24.0721 28.3557 24.0718C28.3557 24.0716 28.3555 24.0714 28.3555 24.0711L28.1588 23.3372L30.3389 22.0785L30.7887 22.8577C30.8227 22.9165 30.8317 22.9857 30.8139 23.0522ZM24.7082 21.009C24.8005 21.3537 24.7238 21.7307 24.4978 22.0438C24.3535 22.2434 24.1549 22.4039 23.9264 22.5205L24.0046 22.8129C24.0571 23.0086 23.9408 23.2101 23.7449 23.2624C23.713 23.2711 23.6811 23.2751 23.6496 23.2751C23.4875 23.2751 23.339 23.1668 23.2951 23.0026L23.2172 22.7119C23.1878 22.7134 23.1581 22.7177 23.1288 22.7177C22.9031 22.7177 22.6829 22.6726 22.4838 22.5832C22.1315 22.4253 21.8765 22.1372 21.7842 21.7927C21.7318 21.5967 21.8481 21.3953 22.044 21.343C22.2388 21.2892 22.4412 21.4067 22.4937 21.6025C22.5414 21.7808 22.6964 21.8737 22.7844 21.913C22.9596 21.9917 23.1813 22.0044 23.3928 21.9479C23.6042 21.8914 23.7898 21.7696 23.9023 21.6137C23.9588 21.5355 24.0465 21.3776 23.9986 21.199C23.9046 20.8481 23.7191 20.814 23.0318 20.8653C22.4479 20.9091 21.565 20.9741 21.3009 19.9891C21.1436 19.4016 21.4837 18.7817 22.082 18.4748L22.0045 18.1854C21.952 17.9897 22.0684 17.7882 22.2642 17.7359C22.4601 17.6826 22.6615 17.7997 22.714 17.9957L22.7921 18.2873C23.0485 18.274 23.3007 18.3139 23.5253 18.4148C23.8776 18.573 24.1326 18.8611 24.2249 19.2058C24.2773 19.4016 24.161 19.6031 23.9652 19.6554C23.7689 19.7094 23.5678 19.5916 23.5154 19.3956C23.4677 19.2173 23.3128 19.1244 23.2247 19.085C23.0493 19.0061 22.8277 18.9936 22.6163 19.0502C22.2085 19.1595 21.931 19.5024 22.0105 19.7988C22.1043 20.15 22.2899 20.1841 22.9774 20.1328C23.5614 20.0902 24.4442 20.024 24.7082 21.009ZM21.7973 15.9933C22.4058 15.8304 22.7685 15.2025 22.6055 14.5936C22.5264 14.299 22.3373 14.0524 22.073 13.8997C21.8085 13.7471 21.5007 13.7067 21.2058 13.7857C20.9109 13.8646 20.6645 14.0536 20.5118 14.3181C20.3591 14.5824 20.3185 14.8905 20.3975 15.1854C20.5342 15.6952 20.9972 16.0324 21.5018 16.0324C21.5994 16.0324 21.6986 16.0197 21.7973 15.9933ZM21.107 14.9951C21.0788 14.8897 21.0933 14.7799 21.1479 14.6853C21.2024 14.5909 21.2904 14.5234 21.3958 14.495C21.431 14.4858 21.4667 14.481 21.5021 14.481C21.5729 14.481 21.6427 14.4995 21.7056 14.5358C21.8001 14.5904 21.8677 14.6785 21.8959 14.7836C21.9542 15.0013 21.8247 15.2257 21.6072 15.284C21.3898 15.342 21.1653 15.2127 21.107 14.9951Z" stroke="#3A3A3A" stroke-width="0.24" mask="url(#path-5-outside-1_1_3112)"/>
</svg>
