<svg width="675" height="276" viewBox="0 0 675 276" fill="none" xmlns="http://www.w3.org/2000/svg">
<path d="M682.848 -83.9344L682.848 275.831M642.126 -83.9344L642.126 275.831M601.404 -83.9344L601.404 275.831M560.681 -83.9344L560.681 275.831M519.959 -83.9344L519.959 275.831M479.237 -83.9344L479.237 275.831M438.515 -83.9344L438.515 275.831M397.792 -83.9344V275.831M357.07 -83.9344V275.831M316.348 -83.9344V275.831M275.626 -83.9344V275.831M234.904 -83.9344V275.831M194.181 -83.9344V275.831M153.459 -83.9344L153.459 275.831M112.737 -83.9344L112.737 275.831M72.0146 -83.9344L72.0147 275.831M31.2924 -83.9344L31.2925 275.831M-9.42981 -83.9344L-9.42975 275.831M703.5 251.364H-29.5M703.5 214.082H-29.5M703.5 176.801H-29.5M703.5 139.519H-29.5M703.5 102.238H-29.5M703.5 64.9566H-29.5M703.5 27.6752H-29.5M703.5 -9.60625H-29.5M703.5 -46.8877H-29.5M703.5 -84.1691L-29.5 -84.1691" stroke="url(#paint0_radial_1_476)" stroke-opacity="0.18" stroke-width="0.5"/>
<defs>
<radialGradient id="paint0_radial_1_476" cx="0" cy="0" r="1" gradientTransform="matrix(245 -121.5 -76.7178 -120.805 329 101.831)" gradientUnits="userSpaceOnUse">
<stop stop-color="#212121"/>
<stop offset="1" stop-color="#212121" stop-opacity="0.1"/>
</radialGradient>
</defs>
</svg>
