<svg width="24" height="24" viewBox="0 0 24 24" fill="none" xmlns="http://www.w3.org/2000/svg">
<path fill-rule="evenodd" clip-rule="evenodd" d="M23.0339 18.984V11.364C23.0339 10.269 22.5554 9.22948 21.7244 8.51698C19.9769 7.01848 16.4414 3.98848 14.2244 2.08798C12.8204 0.88498 10.7474 0.88498 9.34344 2.08798L1.84344 8.51698C1.01244 9.22948 0.533936 10.269 0.533936 11.364V18.984C0.533936 21.0555 2.21244 22.734 4.28394 22.734H19.2839C21.3554 22.734 23.0339 21.0555 23.0339 18.984ZM16.6589 16.359C16.6589 14.91 15.4844 13.734 14.0339 13.734C12.6869 13.734 10.8809 13.734 9.53394 13.734C8.08344 13.734 6.90894 14.91 6.90894 16.359C6.90894 17.808 8.08344 18.984 9.53394 18.984H14.0339C15.4844 18.984 16.6589 17.808 16.6589 16.359ZM15.1589 16.359C15.1589 16.98 14.6549 17.484 14.0339 17.484H9.53394C8.91294 17.484 8.40894 16.98 8.40894 16.359C8.40894 15.738 8.91294 15.234 9.53394 15.234H14.0339C14.6549 15.234 15.1589 15.738 15.1589 16.359Z" fill="white"/>
</svg>
