<svg width="106" height="106" viewBox="0 0 106 106" fill="none" xmlns="http://www.w3.org/2000/svg">
<path d="M36.398 58.7493L41.6 47.0853L42.212 48.1293H35.066L36.182 46.9953V50.2713H34.004V46.1493H43.796V47.7153L38.9 58.7493H36.398ZM45.0812 58.7493V57.1833L50.0852 52.4313C50.5052 52.0353 50.8172 51.6873 51.0212 51.3873C51.2252 51.0873 51.3572 50.8113 51.4172 50.5593C51.4892 50.2953 51.5252 50.0493 51.5252 49.8213C51.5252 49.2453 51.3272 48.8013 50.9312 48.4893C50.5352 48.1653 49.9532 48.0033 49.1852 48.0033C48.5732 48.0033 48.0152 48.1113 47.5112 48.3273C47.0192 48.5433 46.5932 48.8733 46.2332 49.3173L44.5952 48.0573C45.0872 47.3973 45.7472 46.8873 46.5752 46.5273C47.4152 46.1553 48.3512 45.9693 49.3832 45.9693C50.2952 45.9693 51.0872 46.1193 51.7592 46.4193C52.4432 46.7073 52.9652 47.1213 53.3252 47.6613C53.6972 48.2013 53.8832 48.8433 53.8832 49.5873C53.8832 49.9953 53.8292 50.4033 53.7212 50.8113C53.6132 51.2073 53.4092 51.6273 53.1092 52.0713C52.8092 52.5153 52.3712 53.0133 51.7952 53.5653L47.4932 57.6513L47.0072 56.7693H54.3692V58.7493H45.0812ZM57.6595 58.7493L66.2635 46.1493H68.0275L59.4235 58.7493H57.6595ZM58.7035 52.9353C58.1155 52.9353 57.5935 52.7913 57.1375 52.5033C56.6815 52.2153 56.3275 51.8133 56.0755 51.2973C55.8235 50.7813 55.6975 50.1753 55.6975 49.4793C55.6975 48.7833 55.8235 48.1773 56.0755 47.6613C56.3275 47.1453 56.6815 46.7433 57.1375 46.4553C57.5935 46.1673 58.1155 46.0233 58.7035 46.0233C59.3155 46.0233 59.8435 46.1673 60.2875 46.4553C60.7435 46.7433 61.0975 47.1453 61.3495 47.6613C61.6015 48.1773 61.7275 48.7833 61.7275 49.4793C61.7275 50.1753 61.6015 50.7813 61.3495 51.2973C61.0975 51.8133 60.7435 52.2153 60.2875 52.5033C59.8435 52.7913 59.3155 52.9353 58.7035 52.9353ZM58.7215 51.6753C59.2015 51.6753 59.5735 51.4893 59.8375 51.1173C60.1135 50.7333 60.2515 50.1873 60.2515 49.4793C60.2515 48.7713 60.1135 48.2313 59.8375 47.8593C59.5735 47.4753 59.2015 47.2833 58.7215 47.2833C58.2415 47.2833 57.8575 47.4753 57.5695 47.8593C57.2935 48.2433 57.1555 48.7833 57.1555 49.4793C57.1555 50.1753 57.2935 50.7153 57.5695 51.0993C57.8575 51.4833 58.2415 51.6753 58.7215 51.6753ZM66.9655 58.8753C66.3775 58.8753 65.8555 58.7313 65.3995 58.4433C64.9435 58.1553 64.5895 57.7533 64.3375 57.2373C64.0855 56.7213 63.9595 56.1153 63.9595 55.4193C63.9595 54.7233 64.0855 54.1173 64.3375 53.6013C64.5895 53.0853 64.9435 52.6833 65.3995 52.3953C65.8555 52.1073 66.3775 51.9633 66.9655 51.9633C67.5775 51.9633 68.1055 52.1073 68.5495 52.3953C69.0055 52.6833 69.3595 53.0853 69.6115 53.6013C69.8635 54.1173 69.9895 54.7233 69.9895 55.4193C69.9895 56.1153 69.8635 56.7213 69.6115 57.2373C69.3595 57.7533 69.0055 58.1553 68.5495 58.4433C68.1055 58.7313 67.5775 58.8753 66.9655 58.8753ZM66.9655 57.6153C67.4455 57.6153 67.8235 57.4233 68.0995 57.0393C68.3755 56.6553 68.5135 56.1153 68.5135 55.4193C68.5135 54.7233 68.3755 54.1833 68.0995 53.7993C67.8235 53.4153 67.4455 53.2233 66.9655 53.2233C66.4975 53.2233 66.1195 53.4153 65.8315 53.7993C65.5555 54.1713 65.4175 54.7113 65.4175 55.4193C65.4175 56.1273 65.5555 56.6733 65.8315 57.0573C66.1195 57.4293 66.4975 57.6153 66.9655 57.6153Z" fill="#F0F0F0"/>
<path d="M100.5 53.2493C100.5 79.4829 79.2335 100.749 53 100.749C26.7665 100.749 5.5 79.4829 5.5 53.2493C5.5 27.0158 26.7665 5.74933 53 5.74933C79.2335 5.74933 100.5 27.0158 100.5 53.2493ZM23.4476 53.2493C23.4476 69.5707 36.6787 82.8017 53 82.8017C69.3213 82.8017 82.5524 69.5707 82.5524 53.2493C82.5524 36.928 69.3213 23.6969 53 23.6969C36.6787 23.6969 23.4476 36.928 23.4476 53.2493Z" fill="url(#paint0_linear_1_1307)"/>
<path d="M1.85844 41.3838C0.0630862 49.1219 0.0471236 57.1666 1.81176 64.9118C3.57639 72.657 7.0756 79.9008 12.0458 86.0975C17.016 92.2942 23.3276 97.2823 30.5052 100.686C37.6827 104.09 45.5391 105.82 53.4825 105.747L53.2551 81.0131C49.0543 81.0517 44.8994 80.1365 41.1035 78.3365C37.3076 76.5365 33.9696 73.8985 31.3411 70.6213C28.7126 67.3441 26.862 63.5132 25.9288 59.4171C24.9955 55.321 25.004 51.0665 25.9535 46.9742L1.85844 41.3838Z" fill="url(#paint1_linear_1_1307)"/>
<path d="M61.4424 105.066C73.5378 103.095 84.5627 96.9555 92.6068 87.7102L73.9463 71.4742C69.6922 76.3636 63.8616 79.6107 57.4648 80.653L61.4424 105.066Z" fill="url(#paint2_linear_1_1307)"/>
<defs>
<linearGradient id="paint0_linear_1_1307" x1="53.5" y1="62.2493" x2="-14.5" y2="65.2493" gradientUnits="userSpaceOnUse">
<stop stop-color="white"/>
<stop offset="1" stop-color="#999999" stop-opacity="0"/>
</linearGradient>
<linearGradient id="paint1_linear_1_1307" x1="-6" y1="45.2493" x2="48.0263" y2="105.749" gradientUnits="userSpaceOnUse">
<stop stop-color="white"/>
<stop offset="1" stop-color="#262626"/>
</linearGradient>
<linearGradient id="paint2_linear_1_1307" x1="30" y1="69.7493" x2="90" y2="93.7493" gradientUnits="userSpaceOnUse">
<stop stop-color="white"/>
<stop offset="1" stop-color="#262626"/>
</linearGradient>
</defs>
</svg>
