<svg width="30" height="33" viewBox="0 0 30 33" fill="none" xmlns="http://www.w3.org/2000/svg">
<path d="M25.2337 17.9995C24.2444 17.3459 23.9319 15.3218 23.9319 12.6423C23.9319 7.71196 19.9345 3.71375 15.0033 3.71375C10.072 3.71375 6.07472 7.71196 6.07472 12.6423C6.07472 15.3218 5.76312 17.3459 4.77294 17.9995C3.02383 19.1539 2.5033 20.4557 2.5033 21.5709C2.5033 23.3575 3.80508 26.928 15.0033 26.928C26.2006 26.928 27.5033 23.3575 27.5033 21.5709C27.5033 20.4557 26.9819 19.1539 25.2337 17.9995ZM9.85597 28.4004C10.4962 30.6423 12.556 32.2852 15.0033 32.2852C17.4506 32.2852 19.5104 30.6423 20.1515 28.4004C18.6765 28.6004 16.9738 28.7137 15.0033 28.7137C13.0328 28.7137 11.3301 28.6004 9.85597 28.4004Z" fill="white"/>
<circle cx="23.5748" cy="6.57087" r="5.35714" fill="#FFCD38" stroke="#212121" stroke-width="2.14286"/>
</svg>
