<svg width="32" height="32" viewBox="0 0 32 32" fill="none" xmlns="http://www.w3.org/2000/svg">
<rect x="6.5" y="7.5" width="7" height="5" rx="1" fill="#CECECE" stroke="#3A3A3A"/>
<path d="M18.5 12.5L15 16L13 17.5L11 20L11.5 22L13.5 23L16.5 20.5L21 15.5L20 13.5L18.5 12.5Z" fill="#CECECE"/>
<path d="M15.075 18.7201C15.1688 18.814 15.2961 18.8667 15.4287 18.8667C15.5614 18.8667 15.6887 18.814 15.7825 18.7201C15.8763 18.6263 15.929 18.4991 15.929 18.3664C15.929 18.2337 15.8763 18.1065 15.7825 18.0126C15.4085 17.6377 15.1984 17.1297 15.1984 16.6001C15.1984 16.0706 15.4085 15.5626 15.7825 15.1876L17.1825 13.7876C17.5651 13.4569 18.0589 13.2834 18.5643 13.302C19.0698 13.3207 19.5494 13.5302 19.9065 13.8883C20.2637 14.2465 20.4719 14.7266 20.4893 15.2321C20.5066 15.7376 20.3318 16.2309 20 16.6126L18.925 17.6876C18.8312 17.7815 18.7785 17.9087 18.7785 18.0414C18.7785 18.1741 18.8312 18.3013 18.925 18.3951C19.0188 18.489 19.1461 18.5417 19.2787 18.5417C19.4114 18.5417 19.5387 18.489 19.6325 18.3951L20.7075 17.3201C21.2711 16.7566 21.5877 15.9922 21.5877 15.1951C21.5877 14.3981 21.2711 13.6337 20.7075 13.0701C20.1439 12.5066 19.3795 12.1899 18.5825 12.1899C17.7855 12.1899 17.0211 12.5066 16.4575 13.0701L15.0575 14.4701C14.779 14.75 14.5584 15.0821 14.4085 15.4474C14.2586 15.8127 14.1822 16.2039 14.1839 16.5988C14.1855 16.9936 14.265 17.3843 14.418 17.7483C14.5709 18.1123 14.7942 18.4426 15.075 18.7201Z" fill="#3A3A3A"/>
<path d="M13.2249 17.7275C13.3187 17.6337 13.3714 17.5065 13.3714 17.3738C13.3714 17.2411 13.3187 17.1139 13.2249 17.02C13.1311 16.9262 13.0038 16.8735 12.8712 16.8735C12.7385 16.8735 12.6112 16.9262 12.5174 17.02L11.5174 18.02C10.9538 18.5836 10.6372 19.348 10.6372 20.145C10.6372 20.9421 10.9538 21.7065 11.5174 22.27C12.081 22.8336 12.8454 23.1502 13.6424 23.1502C14.4394 23.1502 15.2038 22.8336 15.7674 22.27L17.1699 20.87C17.4496 20.5913 17.6715 20.2601 17.8229 19.8955C17.9743 19.5308 18.0523 19.1399 18.0523 18.745C18.0523 18.3502 17.9743 17.9592 17.8229 17.5946C17.6715 17.2299 17.4496 16.8987 17.1699 16.62C17.1235 16.5736 17.0683 16.5367 17.0076 16.5116C16.9469 16.4864 16.8819 16.4735 16.8162 16.4735C16.7505 16.4735 16.6854 16.4864 16.6247 16.5116C16.564 16.5367 16.5089 16.5736 16.4624 16.62C16.416 16.6665 16.3791 16.7216 16.354 16.7823C16.3288 16.843 16.3159 16.9081 16.3159 16.9738C16.3159 17.0395 16.3288 17.1045 16.354 17.1652C16.3791 17.2259 16.416 17.2811 16.4624 17.3275C16.8364 17.7025 17.0465 18.2104 17.0465 18.74C17.0465 19.2696 16.8364 19.7776 16.4624 20.1525L15.0624 21.5525C14.8797 21.7503 14.659 21.9092 14.4134 22.0196C14.1679 22.13 13.9025 22.1897 13.6333 22.1951C13.3641 22.2005 13.0966 22.1515 12.8468 22.051C12.597 21.9506 12.3701 21.8007 12.1796 21.6104C11.9892 21.4201 11.8391 21.1933 11.7384 20.9436C11.6377 20.6939 11.5884 20.4264 11.5936 20.1572C11.5987 19.888 11.6582 19.6226 11.7684 19.3769C11.8786 19.1313 12.0373 18.9104 12.2349 18.7275L13.2249 17.7275Z" fill="#3A3A3A"/>
<path d="M3 16.5C3 17.163 3.26339 17.7989 3.73223 18.2678C4.20107 18.7366 4.83696 19 5.5 19H9.515C9.64761 19 9.77479 18.9473 9.86855 18.8536C9.96232 18.7598 10.015 18.6326 10.015 18.5C10.015 18.3674 9.96232 18.2402 9.86855 18.1464C9.77479 18.0527 9.64761 18 9.515 18H5.5C5.10218 18 4.72064 17.842 4.43934 17.5607C4.15804 17.2794 4 16.8978 4 16.5V6.5C4 6.10218 4.15804 5.72064 4.43934 5.43934C4.72064 5.15804 5.10218 5 5.5 5H21.5C21.8978 5 22.2794 5.15804 22.5607 5.43934C22.842 5.72064 23 6.10218 23 6.5V16.5C23 16.8978 22.842 17.2794 22.5607 17.5607C22.2794 17.842 21.8978 18 21.5 18C21.3674 18 21.2402 18.0527 21.1464 18.1464C21.0527 18.2402 21 18.3674 21 18.5C21 18.6326 21.0527 18.7598 21.1464 18.8536C21.2402 18.9473 21.3674 19 21.5 19C21.8283 19 22.1534 18.9353 22.4567 18.8097C22.76 18.6841 23.0356 18.4999 23.2678 18.2678C23.4999 18.0356 23.6841 17.76 23.8097 17.4567C23.9353 17.1534 24 16.8283 24 16.5V6.5C24 6.1717 23.9353 5.84661 23.8097 5.54329C23.6841 5.23998 23.4999 4.96438 23.2678 4.73223C23.0356 4.50009 22.76 4.31594 22.4567 4.1903C22.1534 4.06466 21.8283 4 21.5 4H5.5C4.83696 4 4.20107 4.26339 3.73223 4.73223C3.26339 5.20107 3 5.83696 3 6.5V16.5Z" fill="#3A3A3A"/>
<path d="M29 16.5C29 15.837 28.7366 15.2011 28.2678 14.7322C27.7989 14.2634 27.163 14 26.5 14H25.5C25.3674 14 25.2402 14.0527 25.1464 14.1464C25.0527 14.2402 25 14.3674 25 14.5C25 14.6326 25.0527 14.7598 25.1464 14.8536C25.2402 14.9473 25.3674 15 25.5 15H26.5C26.8978 15 27.2794 15.158 27.5607 15.4393C27.842 15.7206 28 16.1022 28 16.5V26.5C28 26.8978 27.842 27.2794 27.5607 27.5607C27.2794 27.842 26.8978 28 26.5 28H10.5C10.1022 28 9.72064 27.842 9.43934 27.5607C9.15804 27.2794 9 26.8978 9 26.5V20.5C9 20.3674 8.94732 20.2402 8.85355 20.1464C8.75979 20.0527 8.63261 20 8.5 20C8.36739 20 8.24021 20.0527 8.14645 20.1464C8.05268 20.2402 8 20.3674 8 20.5V26.5C8 27.163 8.26339 27.7989 8.73223 28.2678C9.20107 28.7366 9.83696 29 10.5 29H26.5C27.163 29 27.7989 28.7366 28.2678 28.2678C28.7366 27.7989 29 27.163 29 26.5V16.5Z" fill="#3A3A3A"/>
<path d="M11.5 25C11.3674 25 11.2402 25.0527 11.1464 25.1464C11.0527 25.2402 11 25.3674 11 25.5C11 25.6326 11.0527 25.7598 11.1464 25.8536C11.2402 25.9473 11.3674 26 11.5 26H15.5C15.6326 26 15.7598 25.9473 15.8536 25.8536C15.9473 25.7598 16 25.6326 16 25.5C16 25.3674 15.9473 25.2402 15.8536 25.1464C15.7598 25.0527 15.6326 25 15.5 25H11.5Z" fill="#3A3A3A"/>
<path d="M17 25.5C17 25.6326 17.0527 25.7598 17.1464 25.8536C17.2402 25.9473 17.3674 26 17.5 26H25.5C25.6326 26 25.7598 25.9473 25.8536 25.8536C25.9473 25.7598 26 25.6326 26 25.5C26 25.3674 25.9473 25.2402 25.8536 25.1464C25.7598 25.0527 25.6326 25 25.5 25H17.5C17.3674 25 17.2402 25.0527 17.1464 25.1464C17.0527 25.2402 17 25.3674 17 25.5Z" fill="#3A3A3A"/>
<path d="M20.5 8C20.6326 8 20.7598 7.94732 20.8536 7.85355C20.9473 7.75979 21 7.63261 21 7.5C21 7.36739 20.9473 7.24021 20.8536 7.14645C20.7598 7.05268 20.6326 7 20.5 7H16.5C16.3674 7 16.2402 7.05268 16.1464 7.14645C16.0527 7.24021 16 7.36739 16 7.5C16 7.63261 16.0527 7.75979 16.1464 7.85355C16.2402 7.94732 16.3674 8 16.5 8H20.5Z" fill="#3A3A3A"/>
</svg>
