<svg width="55" height="55" viewBox="0 0 55 55" fill="none" xmlns="http://www.w3.org/2000/svg">
<rect x="0.00170898" y="0.526245" width="54.4646" height="54.4646" rx="11.3468" fill="#212121"/>
<path d="M25.3591 20.2585L25.9841 19.5085V24.0085C25.9841 24.7585 26.4841 25.2585 27.2341 25.2585C27.9841 25.2585 28.4841 24.7585 28.4841 24.0085V19.5085L29.1091 20.2585C29.6091 20.7585 30.3591 20.7585 30.8591 20.2585C31.3591 19.7585 31.3591 19.0085 30.8591 18.5085L28.1091 15.7585C27.6091 15.2585 26.8591 15.2585 26.3591 15.7585L23.4841 18.5085C23.1091 19.0085 23.1091 19.7585 23.4841 20.2585C23.9841 20.7585 24.8591 20.7585 25.3591 20.2585ZM37.2341 22.7585H30.3591V24.0085C30.3591 25.7585 28.9841 27.1335 27.2341 27.1335C25.4841 27.1335 24.1091 25.7585 24.1091 24.0085V22.7585H17.2341C15.1091 22.7585 13.4841 24.3835 13.4841 26.5085V36.5085C13.4841 38.6335 15.1091 40.2585 17.2341 40.2585H37.2341C39.3591 40.2585 40.9841 38.6335 40.9841 36.5085V26.5085C40.9841 24.5085 39.3591 22.7585 37.2341 22.7585ZM19.7341 32.7585C18.9841 32.7585 18.4841 32.2585 18.4841 31.5085C18.4841 30.7585 18.9841 30.2585 19.7341 30.2585C20.4841 30.2585 20.9841 30.7585 20.9841 31.5085C20.9841 32.2585 20.4841 32.7585 19.7341 32.7585ZM27.2341 34.0085C25.8591 34.0085 24.7341 32.8835 24.7341 31.5085C24.7341 30.1335 25.8591 29.0085 27.2341 29.0085C28.6091 29.0085 29.7341 30.1335 29.7341 31.5085C29.7341 32.8835 28.6091 34.0085 27.2341 34.0085ZM34.7341 32.7585C33.9841 32.7585 33.4841 32.2585 33.4841 31.5085C33.4841 30.7585 33.9841 30.2585 34.7341 30.2585C35.4841 30.2585 35.9841 30.7585 35.9841 31.5085C35.9841 32.2585 35.4841 32.7585 34.7341 32.7585Z" fill="white"/>
</svg>
