<svg width="33" height="32" viewBox="0 0 33 32" fill="none" xmlns="http://www.w3.org/2000/svg">
<circle cx="13.8709" cy="21.9881" r="6.43729" fill="#CECECE"/>
<path d="M21 22C21 18.1402 17.8598 15 14 15C10.1402 15 7 18.1402 7 22C7 25.8598 10.1402 29 14 29C17.8598 29 21 25.8597 21 22ZM14 27.9005C10.7464 27.9005 8.09948 25.2536 8.09948 22C8.09948 18.7464 10.7464 16.0995 14 16.0995C17.2536 16.0995 19.9005 18.7464 19.9005 22C19.9005 25.2536 17.2536 27.9005 14 27.9005Z" fill="#3A3A3A"/>
<path d="M14.0003 19.031C14.6672 19.031 15.2097 19.5736 15.2097 20.2405C15.2097 20.5441 15.4558 20.7902 15.7595 20.7902C16.0631 20.7902 16.3092 20.5441 16.3092 20.2405C16.3092 19.1567 15.5586 18.2456 14.55 17.9982V17.3085C14.55 17.0049 14.304 16.7588 14.0003 16.7588C13.6966 16.7588 13.4506 17.0049 13.4506 17.3085V17.9982C12.4421 18.2455 11.6914 19.1567 11.6914 20.2405C11.6914 21.5136 12.7272 22.5494 14.0003 22.5494C14.6672 22.5494 15.2097 23.0919 15.2097 23.7588C15.2097 24.4257 14.6672 24.9682 14.0003 24.9682C13.3334 24.9682 12.7909 24.4257 12.7909 23.7588C12.7909 23.4552 12.5448 23.2091 12.2411 23.2091C11.9375 23.2091 11.6914 23.4552 11.6914 23.7588C11.6914 24.8425 12.4421 25.7537 13.4506 26.0011V26.6907C13.4506 26.9943 13.6966 27.2405 14.0003 27.2405C14.304 27.2405 14.55 26.9943 14.55 26.6907V26.0011C15.5586 25.7538 16.3092 24.8425 16.3092 23.7588C16.3092 22.4857 15.2734 21.4499 14.0003 21.4499C13.3334 21.4499 12.7909 20.9073 12.7909 20.2405C12.7909 19.5736 13.3334 19.031 14.0003 19.031Z" fill="#3A3A3A"/>
<path d="M12.8033 7.1878L16.6853 5.97461H17.882L19.243 8.01616H17.7403L17.1006 7.65061C16.2627 7.17183 15.2928 7.06211 14.3689 7.3418C13.4453 7.62143 12.6989 8.25088 12.2674 9.11393L12.1854 9.27776C12.0729 9.50265 12.1576 9.77632 12.3774 9.89844L16.8864 12.4035C16.9562 12.4422 17.0347 12.4626 17.1146 12.4626H26.4295C26.689 12.4626 26.8992 12.2523 26.8992 11.9929C26.8992 11.7335 26.689 11.5232 26.4295 11.5232H17.2363L13.2387 9.30231C13.5631 8.79159 14.0529 8.41903 14.6412 8.24086C15.3151 8.03682 16.0229 8.11686 16.6346 8.46619L17.3826 8.89367C17.4536 8.93419 17.5339 8.95555 17.6156 8.95555H20.1207C20.4881 8.95555 20.7159 8.53201 20.5115 8.22533L18.5074 5.21928C18.4528 5.1373 18.3738 5.07462 18.2816 5.04005L14.2736 3.53702C14.206 3.51172 14.1334 3.50226 14.0619 3.50947L9.0518 4.01047C8.98228 4.01743 8.91508 4.03985 8.85534 4.07598L4.84727 6.50142C4.84533 6.50261 4.84339 6.5038 4.84151 6.50499C4.48937 6.72494 4.07328 6.7927 3.66972 6.69569C3.26616 6.59868 2.92622 6.34918 2.71261 5.99321L2.50819 5.65253L8.2716 2.41314L14.0897 0.958584L24.4811 4.42243C24.5291 4.43833 24.5793 4.44648 24.6298 4.44648H31.1429C31.4023 4.44648 31.6126 4.23618 31.6126 3.97678C31.6126 3.71738 31.4023 3.50709 31.1429 3.50709H24.706L14.2571 0.0240793C14.1723 -0.00416502 14.0812 -0.00760945 13.9947 0.0139965L7.98258 1.51702C7.942 1.52717 7.90292 1.5427 7.86641 1.56324L1.62673 5.07029C1.39946 5.19799 1.3198 5.49759 1.45414 5.72142L1.90711 6.4765C2.25149 7.0504 2.79947 7.45259 3.45021 7.60896C3.78827 7.69019 4.13158 7.69914 4.46319 7.6399C4.94347 8.17272 5.61626 8.45454 6.29888 8.45454C6.69292 8.45454 7.09029 8.3606 7.45565 8.16684C7.9343 8.68281 8.59469 8.9563 9.2656 8.9563C9.71563 8.9563 10.1701 8.83355 10.577 8.57923L12.8033 7.1878ZM5.43082 7.24623L9.25088 4.93452L14.0463 4.45499L14.259 4.53478L13.6264 4.50942C13.5715 4.50716 13.5163 4.51474 13.4637 4.53165L9.49394 5.80934C9.45705 5.82118 9.42179 5.83759 9.38891 5.85813L7.11145 7.28155C6.5822 7.61228 5.922 7.5831 5.43082 7.24623ZM8.28125 7.65825L9.83731 6.68573L13.6721 5.45144L15.0353 5.50605L12.4654 6.30916C12.4271 6.32112 12.3906 6.33791 12.3566 6.3592L10.0792 7.78263C9.50558 8.14116 8.78044 8.07759 8.28125 7.65825Z" fill="#3A3A3A"/>
<path d="M31.1416 11.5234H28.6338C28.3743 11.5234 28.1641 11.7337 28.1641 11.9931C28.1641 12.2525 28.3743 12.4628 28.6338 12.4628H31.1416C31.401 12.4628 31.6112 12.2525 31.6112 11.9931C31.6112 11.7337 31.4009 11.5234 31.1416 11.5234Z" fill="#3A3A3A"/>
<path d="M28.8057 18.6748L28.1045 19.376V16.5019C28.1045 16.2425 27.8943 16.0322 27.6348 16.0322C27.3754 16.0322 27.1651 16.2425 27.1651 16.5019V19.376L26.464 18.6748C26.2805 18.4914 25.9831 18.4914 25.7997 18.6748C25.6163 18.8582 25.6163 19.1556 25.7997 19.339L27.3027 20.842C27.4837 21.023 27.786 21.023 27.967 20.842L29.47 19.339C29.6534 19.1556 29.6534 18.8582 29.47 18.6748C29.2865 18.4914 28.9892 18.4914 28.8057 18.6748Z" fill="#3A3A3A"/>
<path d="M25.29 27.6973L24.5889 28.3985V25.5244C24.5889 25.265 24.3786 25.0547 24.1192 25.0547C23.8597 25.0547 23.6495 25.265 23.6495 25.5244V28.3985L22.9483 27.6973C22.7648 27.5138 22.4675 27.5138 22.2841 27.6973C22.1006 27.8807 22.1006 28.1781 22.2841 28.3615L23.7871 29.8645C23.9681 30.0454 24.2704 30.0454 24.4514 29.8645L25.9544 28.3615C26.1378 28.178 26.1378 27.8806 25.9544 27.6973C25.7709 27.5139 25.4735 27.5139 25.29 27.6973Z" fill="#3A3A3A"/>
<path d="M6.76075 16.1699L6.05959 16.8711V13.997C6.05959 13.7376 5.84935 13.5273 5.58989 13.5273C5.33043 13.5273 5.1202 13.7376 5.1202 13.997V16.8711L4.41904 16.1699C4.23554 15.9865 3.93819 15.9865 3.75476 16.1699C3.57133 16.3533 3.57133 16.6508 3.75476 16.8341L5.25778 18.3371C5.43877 18.5181 5.74107 18.5181 5.92206 18.3371L7.42508 16.8341C7.60851 16.6507 7.60851 16.3533 7.42508 16.1699C7.24159 15.9865 6.94424 15.9865 6.76075 16.1699Z" fill="#3A3A3A"/>
</svg>
