<svg width="33" height="32" viewBox="0 0 33 32" fill="none" xmlns="http://www.w3.org/2000/svg">
<path d="M8.75888 17.5485L21.6621 12.9033L23.2105 14.9678L25.7911 14.4517L28.8879 19.0969L15.9847 22.7098L5.66211 19.0969L8.75888 17.5485Z" fill="#CECECE"/>
<path d="M27.8359 30.2499H5.82586C3.85586 30.2499 2.25586 28.6499 2.25586 26.6799V16.4549C2.25586 14.3249 3.31586 12.3449 5.09086 11.1649L6.49086 10.3249C6.72586 10.1799 7.03586 10.2599 7.17586 10.4949C7.31586 10.7299 7.24086 11.0399 7.00586 11.1799L5.62586 12.0099C4.15086 12.9949 3.25586 14.6599 3.25586 16.4599V26.6849C3.25586 28.0999 4.41086 29.2549 5.82586 29.2549H27.8359C29.2509 29.2549 30.4059 28.0999 30.4059 26.6849V16.4549C30.4059 14.6649 29.5109 12.9949 28.0159 11.9949L17.9859 5.98992C17.2709 5.55992 16.3809 5.55992 15.6659 5.98992L10.3459 9.17992C10.1109 9.31992 9.80086 9.24492 9.66086 9.00992C9.52086 8.77492 9.59586 8.46492 9.83086 8.32492L15.1509 5.13492C16.1809 4.51492 17.4659 4.51492 18.4959 5.13492L28.5459 11.1549C30.3409 12.3549 31.4009 14.3349 31.4009 16.4599V26.6849C31.4009 28.6499 29.8009 30.2499 27.8359 30.2499Z" fill="#3A3A3A"/>
<path d="M16.8307 23.3496C16.2357 23.3496 15.6407 23.2446 15.0757 23.0396L2.59567 18.8796C2.33567 18.7946 2.19067 18.5096 2.28067 18.2446C2.37067 17.9796 2.65067 17.8396 2.91067 17.9296L15.4057 22.0946C16.3257 22.4346 17.3257 22.4346 18.2357 22.0996L30.7457 17.9296C31.0057 17.8446 31.2907 17.9846 31.3757 18.2446C31.4607 18.5046 31.3207 18.7896 31.0607 18.8796L18.5657 23.0446C18.0107 23.2496 17.4207 23.3496 16.8307 23.3496Z" fill="#3A3A3A"/>
<path d="M7.18078 20.3802C6.96578 20.3802 6.76578 20.2402 6.70078 20.0202C6.62078 19.7552 6.77578 19.4752 7.04078 19.4002L25.6608 13.9002C25.8808 13.8352 26.1208 13.9302 26.2358 14.1302L29.0408 18.9952C29.1808 19.2352 29.0958 19.5402 28.8558 19.6802C28.6158 19.8202 28.3108 19.7352 28.1708 19.4952L25.5608 14.9702L7.32078 20.3602C7.27078 20.3752 7.22578 20.3802 7.18078 20.3802Z" fill="#3A3A3A"/>
<path d="M17.3401 23.325C17.1901 23.325 17.0401 23.26 16.9451 23.13C16.4201 22.45 16.1651 21.605 16.2851 20.93C16.3701 20.45 16.6251 20.06 17.0351 19.8C17.2701 19.65 17.5751 19.72 17.7251 19.95C17.8751 20.185 17.8051 20.49 17.5751 20.64C17.4051 20.745 17.3101 20.9 17.2751 21.1C17.2051 21.495 17.3951 22.065 17.7451 22.52C17.9151 22.74 17.8751 23.05 17.6551 23.22C17.5551 23.29 17.4451 23.325 17.3401 23.325Z" fill="#3A3A3A"/>
<path d="M19.6254 22.665C19.3604 22.665 19.1354 22.455 19.1254 22.185C19.1104 21.805 19.0204 21.27 18.8604 20.55C18.5654 19.275 19.1654 18.555 19.8204 18.31C20.7404 17.965 21.8854 18.425 22.3704 19.335C22.8704 20.28 22.8104 21.01 22.6654 21.46C22.5804 21.725 22.3004 21.87 22.0354 21.785C21.7704 21.7 21.6254 21.42 21.7104 21.155C21.7954 20.89 21.8254 20.44 21.4854 19.805C21.2104 19.29 20.5704 19.095 20.1704 19.245C19.7254 19.41 19.7404 19.925 19.8354 20.325C20.0154 21.12 20.1054 21.695 20.1254 22.14C20.1354 22.415 19.9204 22.65 19.6454 22.66C19.6404 22.665 19.6354 22.665 19.6254 22.665Z" fill="#3A3A3A"/>
<path d="M21.9897 20.1904C21.7897 20.1904 21.5997 20.0704 21.5247 19.8754C21.4247 19.6204 21.5497 19.3304 21.8047 19.2254L23.0197 18.7454C23.2747 18.6454 23.5647 18.7704 23.6697 19.0254C23.7697 19.2804 23.6447 19.5704 23.3897 19.6754L22.1747 20.1554C22.1147 20.1804 22.0497 20.1904 21.9897 20.1904Z" fill="#3A3A3A"/>
<path d="M5.17097 19.71C4.96597 19.71 4.77596 19.5851 4.70096 19.3851C4.60596 19.1251 4.73596 18.8401 4.99596 18.7401L21.816 12.44C22.046 12.355 22.311 12.4501 22.431 12.6701L23.646 14.9101C23.776 15.1551 23.686 15.4551 23.446 15.5901C23.201 15.7201 22.901 15.6301 22.766 15.3901L21.756 13.5351L5.35096 19.6801C5.29096 19.7001 5.23097 19.71 5.17097 19.71Z" fill="#3A3A3A"/>
<path d="M12.0243 17.1453C11.9493 17.1453 11.8743 17.1303 11.7993 17.0903C7.64935 15.0103 6.14435 10.9103 5.69435 9.27031L4.27935 10.1253C4.09935 10.2353 3.87435 10.2203 3.70935 10.0853C3.54435 9.95531 3.47935 9.7353 3.54935 9.53531L6.14935 1.76031C6.19935 1.61031 6.31935 1.49531 6.46935 1.44531C6.61935 1.39531 6.78435 1.42031 6.91435 1.51031L12.3143 5.32031C12.4593 5.42531 12.5393 5.59531 12.5243 5.77531C12.5093 5.95531 12.3993 6.11031 12.2343 6.18531L10.0393 7.18031C10.4293 8.45531 11.9643 12.5403 16.0293 14.7953C16.2693 14.9303 16.3594 15.2353 16.2243 15.4753C16.0893 15.7153 15.7843 15.8053 15.5443 15.6703C10.3093 12.7653 9.00435 7.25031 8.94935 7.01531C8.89935 6.78531 9.01435 6.5453 9.22935 6.4503L11.0194 5.63531L6.88435 2.71531L4.92435 8.5653L5.75935 8.06031C5.89935 7.97531 6.07435 7.9653 6.22435 8.0303C6.37435 8.10031 6.47935 8.23531 6.50935 8.39531C6.51935 8.45031 7.54935 13.8403 12.2443 16.1903C12.4893 16.3153 12.5893 16.6153 12.4693 16.8603C12.3843 17.0403 12.2093 17.1453 12.0243 17.1453Z" fill="#3A3A3A"/>
<path d="M16.6851 25.535C16.2451 25.535 15.8001 25.475 15.3651 25.355L13.4651 24.715C13.2051 24.625 13.0601 24.345 13.1501 24.08C13.2401 23.82 13.5201 23.68 13.7851 23.765L15.6601 24.395C16.4051 24.6 17.2151 24.575 17.9751 24.315L20.0201 23.62C20.2801 23.53 20.5651 23.67 20.6551 23.93C20.7451 24.19 20.6051 24.475 20.3401 24.565L18.3001 25.26C17.7701 25.445 17.2301 25.535 16.6851 25.535Z" fill="#3A3A3A"/>
</svg>
