<svg width="24" height="24" viewBox="0 0 24 24" fill="none" xmlns="http://www.w3.org/2000/svg">
<path d="M20.349 12.0533V11.9468L21.9292 10.374C22.6905 9.61576 22.8465 8.43676 22.3095 7.50601L21.0465 5.31826C20.5095 4.38826 19.4092 3.93301 18.3727 4.21426L16.221 4.79551L16.1287 4.74226L15.5565 2.58751C15.2805 1.55026 14.3377 0.825012 13.263 0.825012H10.737C9.6622 0.825012 8.71945 1.55026 8.4442 2.58901L7.87195 4.74376L7.7797 4.79701L5.6272 4.21501C4.59145 3.93301 3.4912 4.38826 2.95345 5.31826L1.69045 7.50601C1.15345 8.43676 1.30945 9.61576 2.0707 10.374L3.6502 11.9468V12.0533L2.06995 13.626C1.3087 14.385 1.1527 15.5633 1.6897 16.4933L2.9527 18.6818C3.4897 19.6125 4.5892 20.0655 5.62645 19.7858L7.7782 19.2045L7.87045 19.2578L8.4427 21.411C8.7187 22.4498 9.66145 23.1758 10.7362 23.1758H13.2622C14.337 23.1758 15.2797 22.4498 15.555 21.4118L16.1272 19.2578C16.1272 19.257 16.2195 19.2045 16.2195 19.2045L18.3712 19.7858C19.41 20.0648 20.508 19.6125 21.045 18.6818L22.308 16.4933C22.845 15.5633 22.689 14.3843 21.9277 13.626L20.349 12.0533ZM21.1402 15.8183L19.8772 18.0068C19.6455 18.4073 19.1715 18.6038 18.7245 18.4823L16.5727 17.901C16.2037 17.802 15.8182 17.853 15.4882 18.0428C15.1575 18.234 14.9212 18.5423 14.8237 18.9105L14.2507 21.0653C14.1322 21.513 13.7257 21.825 13.263 21.825H10.737C10.2735 21.825 9.8677 21.513 9.74845 21.0645L9.1762 18.9113C9.0787 18.5423 8.84245 18.234 8.5117 18.0428C8.29195 17.916 8.0482 17.8508 7.80145 17.8508C7.6762 17.8508 7.55095 17.8673 7.4272 17.9003L5.27545 18.4815C4.82695 18.6023 4.35445 18.4058 4.1227 18.006L2.8597 15.8175C2.62795 15.417 2.69545 14.9085 3.0232 14.5823L4.6027 13.0095C4.87345 12.7403 5.0227 12.3818 5.0227 11.9993C5.0227 11.6168 4.87345 11.259 4.6027 10.9898L3.0232 9.41701C2.6947 9.09001 2.62795 8.58226 2.85895 8.18101L4.12195 5.99326C4.3537 5.59201 4.8262 5.39626 5.2747 5.51701L7.42645 6.09826C7.79395 6.19801 8.1802 6.14701 8.51095 5.95726C8.8417 5.76601 9.07795 5.45776 9.17545 5.08876L9.74845 2.93401C9.86695 2.48626 10.2735 2.17351 10.7362 2.17351H13.2622C13.7257 2.17351 14.1315 2.48626 14.2507 2.93401L14.823 5.08876C14.9205 5.45776 15.1567 5.76601 15.4875 5.95726C15.8175 6.14701 16.2037 6.19876 16.572 6.09826L18.7237 5.51701C19.173 5.39701 19.6447 5.59201 19.8765 5.99326L21.1395 8.18101C21.3712 8.58226 21.3037 9.09001 20.976 9.41701L19.3965 10.9898C19.1257 11.259 18.9765 11.6175 18.9765 12C18.9765 12.3825 19.1257 12.7403 19.3965 13.0103L20.976 14.583C21.3045 14.9093 21.372 15.4178 21.1402 15.8183Z" fill="#B5B5B5"/>
<path d="M11.9999 7.88776C9.7327 7.88776 7.8877 9.73276 7.8877 12C7.8877 14.2673 9.7327 16.1123 11.9999 16.1123C14.2672 16.1123 16.1122 14.2673 16.1122 12C16.1122 9.73276 14.2672 7.88776 11.9999 7.88776ZM11.9999 14.7623C10.4767 14.7623 9.23695 13.524 9.23695 12C9.23695 10.476 10.4759 9.23701 11.9999 9.23701C13.5239 9.23701 14.7629 10.476 14.7629 12C14.7629 13.524 13.5232 14.7623 11.9999 14.7623Z" fill="#B5B5B5"/>
</svg>
