<svg width="55" height="55" viewBox="0 0 55 55" fill="none" xmlns="http://www.w3.org/2000/svg">
<rect x="0.203613" y="0.526245" width="54.4646" height="54.4646" rx="11.3468" fill="#212121"/>
<path d="M32.1235 41.8347C26.9542 41.8347 22.7485 37.6291 22.7485 32.4597C22.7485 27.2903 26.9542 23.0847 32.1235 23.0847C37.2929 23.0847 41.4985 27.2903 41.4985 32.4597C41.4985 37.6291 37.2929 41.8347 32.1235 41.8347ZM32.1235 24.9597C27.9882 24.9597 24.6235 28.3244 24.6235 32.4597C24.6235 36.595 27.9882 39.9597 32.1235 39.9597C36.2588 39.9597 39.6235 36.595 39.6235 32.4597C39.6235 28.3244 36.2588 24.9597 32.1235 24.9597Z" fill="white"/>
<path d="M22.7485 32.446C17.5792 32.446 13.3735 28.2404 13.3735 23.071C13.3735 17.9017 17.5801 13.696 22.7485 13.696C27.917 13.696 32.1235 17.9017 32.1235 23.071C32.1235 23.4498 32.101 23.8276 32.056 24.1942L30.1951 23.9682C30.2317 23.6748 30.2495 23.3748 30.2495 23.071C30.2495 18.9357 26.8848 15.571 22.7495 15.571C18.6142 15.571 15.2485 18.9357 15.2485 23.071C15.2485 27.2064 18.6132 30.571 22.7485 30.571C23.0485 30.571 23.3448 30.5532 23.6354 30.5185L23.8567 32.3804C23.492 32.4235 23.1198 32.4451 22.7476 32.4451L22.7485 32.446Z" fill="white"/>
<path d="M18.0897 36.2985L16.465 34.5876L14.8459 36.2976C14.4869 36.6707 13.8934 36.682 13.5203 36.3229C13.1472 35.9639 13.1359 35.3704 13.495 34.9973L15.3447 33.0482C15.6353 32.7464 16.0431 32.572 16.4631 32.571H16.465C16.885 32.571 17.2919 32.7445 17.5834 33.0464L19.4397 34.9964C19.7987 35.3695 19.7884 35.9629 19.4153 36.322C19.0422 36.682 18.4487 36.6717 18.0897 36.2985Z" fill="white"/>
<path d="M32.1235 24.0222C27.4632 24.0222 23.686 27.7994 23.686 32.4597C23.686 37.12 27.4632 40.8972 32.1235 40.8972C36.7838 40.8972 40.561 37.12 40.561 32.4597C40.561 27.7994 36.7838 24.0222 32.1235 24.0222ZM34.8817 35.0069C34.6942 35.9735 33.9845 36.715 33.0929 37.0535V37.7828C33.0929 38.3003 32.6729 38.7203 32.1554 38.7203C31.6379 38.7203 31.2179 38.3003 31.2179 37.7828V37.2578H30.6395C30.122 37.2578 29.702 36.8378 29.702 36.3203C29.702 35.8028 30.122 35.3828 30.6395 35.3828H32.1235C32.6401 35.3828 33.061 34.9628 33.061 34.4453C33.061 33.9203 32.6288 33.4957 32.102 33.5078C31.2788 33.5266 30.4482 33.2922 29.971 32.6219C28.5901 30.6813 29.5576 28.6066 31.2179 28.0385V27.3578C31.2179 26.8403 31.6379 26.4203 32.1554 26.4203C32.6729 26.4203 33.0929 26.8403 33.0929 27.3578V27.8828H33.6713C34.1888 27.8828 34.6088 28.3028 34.6088 28.8203C34.6088 29.3378 34.1888 29.7578 33.6713 29.7578H32.1245C31.6079 29.7578 31.187 30.1778 31.187 30.6953C31.187 31.2128 31.6079 31.6328 32.1245 31.6328C33.8588 31.6328 35.2313 33.2107 34.8826 35.006L34.8817 35.0069Z" fill="white"/>
<path d="M22.7798 23.6355C23.2976 23.6355 23.7173 23.2158 23.7173 22.698C23.7173 22.1802 23.2976 21.7605 22.7798 21.7605C22.262 21.7605 21.8423 22.1802 21.8423 22.698C21.8423 23.2158 22.262 23.6355 22.7798 23.6355Z" fill="white"/>
<path d="M21.842 41.8207H21.4876C18.197 41.8207 15.5298 39.1535 15.5298 35.8629V33.7742H17.4048V35.8629C17.4048 38.1176 19.2329 39.9457 21.4876 39.9457H21.842C22.3595 39.9457 22.7795 40.3657 22.7795 40.8832C22.7795 41.4007 22.3595 41.8207 21.842 41.8207Z" fill="white"/>
<path d="M36.7829 19.2188L38.4076 20.9298L40.0267 19.2198C40.3858 18.8466 40.9792 18.8354 41.3523 19.1945C41.7254 19.5535 41.7367 20.147 41.3776 20.5201L39.5279 22.4691C39.2373 22.771 38.8295 22.9454 38.4095 22.9463H38.4076C37.9876 22.9463 37.5808 22.7729 37.2892 22.471L35.4329 20.521C35.0739 20.1479 35.0842 19.5545 35.4573 19.1954C35.8304 18.8354 36.4239 18.8466 36.7829 19.2198V19.2188Z" fill="white"/>
<path d="M39.342 21.7426H37.467V19.6539C37.467 17.3992 35.6388 15.571 33.3842 15.571H33.0298C32.5123 15.571 32.0923 15.151 32.0923 14.6335C32.0923 14.116 32.5123 13.696 33.0298 13.696H33.3842C36.6748 13.696 39.342 16.3632 39.342 19.6539V21.7426Z" fill="white"/>
</svg>
