<svg width="24" height="24" viewBox="0 0 24 24" fill="none" xmlns="http://www.w3.org/2000/svg">
<path d="M19.125 21.9375H4.875C3.9805 21.9355 3.12321 21.5793 2.4907 20.9468C1.8582 20.3143 1.50198 19.457 1.5 18.5625V6.9375C1.5 6.73859 1.57902 6.54782 1.71967 6.40717C1.86032 6.26652 2.05109 6.1875 2.25 6.1875C2.44891 6.1875 2.63968 6.26652 2.78033 6.40717C2.92098 6.54782 3 6.73859 3 6.9375V18.5625C3 19.0598 3.19754 19.5367 3.54918 19.8883C3.90081 20.24 4.37772 20.4375 4.875 20.4375H19.125C19.6223 20.4375 20.0992 20.24 20.4508 19.8883C20.8025 19.5367 21 19.0598 21 18.5625V9.5625C21 9.06522 20.8025 8.58831 20.4508 8.23668C20.0992 7.88504 19.6223 7.6875 19.125 7.6875H6C5.80109 7.6875 5.61032 7.60848 5.46967 7.46783C5.32902 7.32718 5.25 7.13641 5.25 6.9375C5.25 6.73859 5.32902 6.54782 5.46967 6.40717C5.61032 6.26652 5.80109 6.1875 6 6.1875H19.125C20.0195 6.18948 20.8768 6.5457 21.5093 7.1782C22.1418 7.81071 22.498 8.668 22.5 9.5625V18.5625C22.498 19.457 22.1418 20.3143 21.5093 20.9468C20.8768 21.5793 20.0195 21.9355 19.125 21.9375Z" fill="#B5B5B5"/>
<path d="M2.25 7.6875C2.05109 7.6875 1.86032 7.60848 1.71967 7.46783C1.57902 7.32718 1.5 7.13641 1.5 6.9375C1.50301 6.13306 1.79582 5.35666 2.32477 4.75057C2.85372 4.14449 3.58337 3.74932 4.38 3.6375L15.75 2.0925C16.2189 2.03166 16.6954 2.07161 17.1477 2.20968C17.5999 2.34775 18.0175 2.58076 18.3724 2.89313C18.7274 3.20551 19.0116 3.59006 19.2061 4.02108C19.4005 4.45209 19.5007 4.91965 19.5 5.3925V6.1875C19.5 6.38641 19.421 6.57718 19.2803 6.71783C19.1397 6.85848 18.9489 6.9375 18.75 6.9375C18.5511 6.9375 18.3603 6.85848 18.2197 6.71783C18.079 6.57718 18 6.38641 18 6.1875V5.3925C18.0012 5.1313 17.9462 4.8729 17.8388 4.6348C17.7314 4.39671 17.5741 4.18448 17.3775 4.0125C17.1792 3.84172 16.9471 3.7147 16.6964 3.63974C16.4457 3.56478 16.182 3.54357 15.9225 3.5775L4.5825 5.13C4.14506 5.18971 3.74395 5.40554 3.45313 5.73772C3.16231 6.06989 3.00137 6.49601 3 6.9375C3 7.13641 2.92098 7.32718 2.78033 7.46783C2.63968 7.60848 2.44891 7.6875 2.25 7.6875Z" fill="#B5B5B5"/>
<path d="M12.375 18.75C11.4108 18.75 10.4683 18.4641 9.6666 17.9284C8.86491 17.3927 8.24007 16.6314 7.87109 15.7406C7.50211 14.8498 7.40557 13.8696 7.59367 12.9239C7.78178 11.9783 8.24608 11.1096 8.92786 10.4279C9.60964 9.74608 10.4783 9.28178 11.4239 9.09367C12.3696 8.90557 13.3498 9.00211 14.2406 9.37109C15.1314 9.74007 15.8927 10.3649 16.4284 11.1666C16.9641 11.9683 17.25 12.9108 17.25 13.875C17.248 15.1673 16.7338 16.4061 15.82 17.32C14.9061 18.2338 13.6673 18.748 12.375 18.75ZM12.375 10.5C11.7075 10.5 11.055 10.6979 10.5 11.0688C9.94494 11.4396 9.51235 11.9667 9.25691 12.5834C9.00146 13.2001 8.93463 13.8787 9.06485 14.5334C9.19508 15.1881 9.51651 15.7895 9.98852 16.2615C10.4605 16.7335 11.0619 17.0549 11.7166 17.1852C12.3713 17.3154 13.0499 17.2485 13.6666 16.9931C14.2833 16.7376 14.8104 16.3051 15.1812 15.7501C15.5521 15.195 15.75 14.5425 15.75 13.875C15.748 12.9805 15.3918 12.1232 14.7593 11.4907C14.1268 10.8582 13.2695 10.502 12.375 10.5Z" fill="#B5B5B5"/>
<path d="M14.25 15H12C11.8011 15 11.6103 14.921 11.4697 14.7803C11.329 14.6397 11.25 14.4489 11.25 14.25V12C11.25 11.8011 11.329 11.6103 11.4697 11.4697C11.6103 11.329 11.8011 11.25 12 11.25C12.1989 11.25 12.3897 11.329 12.5303 11.4697C12.671 11.6103 12.75 11.8011 12.75 12V13.5H14.25C14.4489 13.5 14.6397 13.579 14.7803 13.7197C14.921 13.8603 15 14.0511 15 14.25C15 14.4489 14.921 14.6397 14.7803 14.7803C14.6397 14.921 14.4489 15 14.25 15Z" fill="#B5B5B5"/>
</svg>
