<svg width="24" height="24" viewBox="0 0 24 24" fill="none" xmlns="http://www.w3.org/2000/svg">
<ellipse cx="12" cy="15.5" rx="2" ry="3.5" fill="#CECECE"/>
<path d="M22.4351 20.2596V11.3182C22.4351 10.083 21.4302 9.07812 20.1949 9.07812H3.80261C2.56738 9.07812 1.5625 10.083 1.5625 11.3182V20.2596C1.5625 21.4949 2.56738 22.4998 3.80261 22.4998H20.1949C21.4302 22.4998 22.4351 21.4949 22.4351 20.2596ZM20.9351 20.2596C20.9351 20.6676 20.6029 20.9998 20.1949 20.9998H3.80261C3.39465 20.9998 3.0625 20.6676 3.0625 20.2596V11.3182C3.0625 10.9103 3.39465 10.5781 3.80261 10.5781H20.1949C20.6029 10.5781 20.9351 10.9103 20.9351 11.3182V20.2596Z" fill="#3A3A3A"/>
<path d="M11.9987 11.7969C10.2756 11.7969 8.92578 13.551 8.92578 15.79C8.92578 18.0294 10.2756 19.7836 11.9987 19.7836C13.7217 19.7836 15.0715 18.0294 15.0715 15.79C15.0715 13.551 13.7217 11.7969 11.9987 11.7969ZM11.9987 18.2836C11.1461 18.2836 10.4258 17.1417 10.4258 15.79C10.4258 14.4387 11.1461 13.2969 11.9987 13.2969C12.8512 13.2969 13.5715 14.4387 13.5715 15.79C13.5715 17.1417 12.8512 18.2836 11.9987 18.2836Z" fill="#3A3A3A"/>
<path d="M11.9994 8.34302C12.4136 8.34302 12.7494 8.0072 12.7494 7.59302V4.0806L13.5664 4.90869C13.7133 5.05774 13.9066 5.13208 14.1004 5.13208C14.2908 5.13208 14.4809 5.0603 14.627 4.91602C14.9221 4.62524 14.9251 4.15027 14.6343 3.85547L12.5353 1.72792C12.399 1.58807 12.2101 1.5 11.9994 1.5C11.7887 1.5 11.5998 1.58807 11.4635 1.72792L9.36452 3.85547C9.07375 4.15027 9.07668 4.62524 9.37184 4.91602C9.66628 5.20715 10.1413 5.20349 10.4324 4.90869L11.2494 4.0806V7.59302C11.2494 8.0072 11.5852 8.34302 11.9994 8.34302Z" fill="#3A3A3A"/>
<path d="M6.01147 15.0391H6.00378C5.5896 15.0391 5.25781 15.3749 5.25781 15.7891C5.25781 16.2032 5.59729 16.5391 6.01147 16.5391C6.42566 16.5391 6.76147 16.2032 6.76147 15.7891C6.76147 15.3749 6.42566 15.0391 6.01147 15.0391Z" fill="#3A3A3A"/>
<path d="M18.0193 15.0391H18.0116C17.5974 15.0391 17.2656 15.3749 17.2656 15.7891C17.2656 16.2032 17.6051 16.5391 18.0193 16.5391C18.4335 16.5391 18.7693 16.2032 18.7693 15.7891C18.7693 15.3749 18.4335 15.0391 18.0193 15.0391Z" fill="#3A3A3A"/>
</svg>
